<?xml version="1.0" encoding="UTF-8"?><svg id="Layer_2" xmlns="http://www.w3.org/2000/svg" xmlns:xlink="http://www.w3.org/1999/xlink" viewBox="0 0 2000 2000"><defs><style>.cls-1{fill:none;}.cls-2{clip-path:url(#clippath);}.cls-3{fill:#f2ec1a;}.cls-4{fill:#f2f2f2;}.cls-5{fill:#ebe258;}.cls-6{fill:#f28a27;}.cls-7{fill:#f5ce89;}.cls-8{fill:#f6b614;}.cls-9{fill:#e8684e;}.cls-10{fill:#fff;}.cls-11{fill:#ea3d8d;}.cls-12{fill:#b7312c;}.cls-13{fill:#b7d333;}.cls-14{fill:#d09963;}.cls-15{fill:#dca335;}.cls-16{fill:#e2107c;}.cls-17{fill:#119565;}.cls-18{fill:#186f8e;}.cls-19{fill:#197b89;}.cls-20{fill:#0d392a;}.cls-21{fill:#0c2a29;}.cls-22{fill:#540d37;}.cls-23{fill:#644287;}.cls-24{fill:#2eabce;}.cls-25{fill:#78aba7;}.cls-26{clip-path:url(#clippath-1);}.cls-27{clip-path:url(#clippath-4);}.cls-28{clip-path:url(#clippath-3);}.cls-29{clip-path:url(#clippath-2);}</style><clipPath id="clippath"><circle class="cls-1" cx="1000" cy="1000" r="900"/></clipPath><clipPath id="clippath-1"><rect class="cls-1" x="641.76" y="747.32" width="657.03" height="654.85"/></clipPath><clipPath id="clippath-2"><rect class="cls-1" x="643.21" y="1403.26" width="656.3" height="656.3"/></clipPath><clipPath id="clippath-3"><rect class="cls-1" x="1299.52" y="1403.26" width="656.3" height="656.3"/></clipPath><clipPath id="clippath-4"><rect class="cls-1" x="-22.08" y="746.77" width="664.65" height="664.65"/></clipPath></defs><g id="Layer_1-2"><g id="App_Icon"><rect class="cls-20" width="2000" height="2000"/><g class="cls-2"><g id="Mosaic_2018_-_mobile"><g id="Group_437"><rect id="Rectangle_579" class="cls-21" x="643.21" y="746.23" width="654.22" height="657.03"/><g id="Group_436"><g class="cls-26"><g id="Group_435"><path id="Path_458" class="cls-25" d="m1200.31,954.62s-17.7-20.88-38.48-41.21c-37.21-36.4-83.05-32.04-123.8-17.7-30.41,10.71-131.97,42.02-173.72,60.81-69.71,31.4-101.65,51.28-101.65,91.13v48.65c0,39.84,31.95,59.72,101.65,91.13,41.75,18.79,143.4,50.01,173.72,60.81,40.75,14.43,86.59,18.7,123.8-17.7,20.78-20.33,38.48-41.21,38.48-41.21v-234.71h0Z"/><path id="Path_459" class="cls-21" d="m993.47,1138.05c5.26-11.25,29.32-11.25,53.73.09,24.41,11.35,39.94,29.68,34.67,41.02-5.26,11.25-29.32,11.25-53.73-.09-24.41-11.35-39.94-29.68-34.67-41.02"/><path id="Path_460" class="cls-21" d="m993.47,1005.81c5.26,11.25,29.32,11.25,53.73-.09,24.41-11.35,39.94-29.68,34.67-41.02-5.26-11.25-29.32-11.25-53.73.09-24.41,11.35-39.94,29.68-34.67,41.02"/><path id="Path_461" class="cls-25" d="m1460.17,1189.24h-259.94c-64.8-58.54-69.89-158.47-11.35-223.28,3.63-3.99,7.35-7.81,11.35-11.35h259.94v234.62Z"/></g></g></g></g></g><g id="mosaic_2020-mobile"><g id="Artwork_10"><g id="Group_909"><rect id="Rectangle_1397" class="cls-23" x="641.76" y="89.2" width="657.03" height="657.03"/><path id="Path_821" class="cls-11" d="m1293.71,418.21c0,179.98-145.95,325.93-325.93,325.93s-325.93-145.95-325.93-325.93S787.8,92.29,967.78,92.29c179.98,0,325.93,145.95,325.93,325.93"/><path id="Path_822" class="cls-8" d="m1293.71,418.21c-179.98,0-325.93,145.95-325.93,325.93,0-179.98-145.95-325.93-325.93-325.93,179.98,0,325.93-145.95,325.93-325.93,0,180.07,145.95,325.93,325.93,325.93"/></g></g></g><g id="Mosaic_2012-mobile"><g id="Group_341"><rect id="Rectangle_466" x="1295.43" y="92.01" width="657.03" height="657.03"/><g id="Group_340"><path id="Path_422" class="cls-5" d="m1573.16,228.61c9.44-3.63,19.97,1.09,23.6,10.44.09.27.27.64.36.91,9.26,26.96,27.77,49.83,52.28,64.53,53.37,32.4,117.81,45.02,112.09,142.22-5.72,97.21-77.87,135.69-162.1,115.54-91.85-21.78-148.67-113.54-141.04-210.84,5.72-72.61,78.42-109.1,114.81-122.8"/><path id="Path_423" d="m1623.36,382.82c3.45,60.36.27,133.87-8.89,133.87s-20.69-73.52-24.14-133.87c-3.45-60.36,2.54-84.77,11.71-84.77s17.88,24.42,21.33,84.77"/></g></g></g><g id="mosaic_2015-mobile"><g id="Group_441"><rect id="Rectangle_584" class="cls-16" x="1298.79" y="746.23" width="657.03" height="657.03"/><path id="Path_469" class="cls-24" d="m1511.99,1401.26l-211.93-655.03h648.13l-211.93,654.85-224.27.18h0Z"/><path id="Path_470" class="cls-3" d="m1482.86,1311.77l-182.8-565.54h648.13l-182.8,565.54h-282.54Z"/><path id="Path_471" class="cls-6" d="m1427.4,1137.69l-127.34-391.46h648.13l-127.25,391.46h-393.55Z"/></g></g><g id="mosaic_2022-mobile"><g id="Group_901"><rect id="Rectangle_399" class="cls-19" x="643.21" y="1403.26" width="656.3" height="656.3"/><g id="Group_266"><g class="cls-29"><g id="Group_265"><path id="Path_273" class="cls-15" d="m1350.98,1529.42h-224.91c-42.93,0-77.69,34.76-77.69,77.69v222.1c0,8.53-6.99,15.52-15.52,15.52h-5.35c-8.53,0-15.52-6.9-15.52-15.52h0v-352.07c0-42.93-34.76-77.69-77.69-77.69h-285.63c-8.53,0-15.52,6.99-15.52,15.52h0v106.83c0,51.46,41.75,93.21,93.21,93.21h27.32v382.56c0,34.31,27.77,62.08,62.17,62.08h482.4c34.31,0,62.08-27.77,62.08-62.08l-9.35-468.15h0Z"/></g></g></g></g></g><g id="Mosaic_2021-_mobile"><g id="Mosaic_2021"><g id="Group_907"><rect id="Rectangle_1395" class="cls-12" x="1299.52" y="1403.26" width="656.3" height="656.3"/><g id="Group_906"><g class="cls-28"><g id="Group_905"><path id="Path_820" class="cls-22" d="m2133.35,2930.34c6.53-60.27-23.96-80.6,9.44-121.26,33.4-40.66,134.33-89.31,193.05-223.55,58.72-134.24,38.48-318.67-153.84-436.93-192.42-118.35-404.26,29.77-484.85,184.34-121.44,232.9,45.74,458.99-54.46,607.56-91.4,135.51-361.42,74.06-563.27-69.71-201.76-143.77-340.45-334.37-214.38-443.74,123.89-107.46,336.46,205.4,539.22,161.19,204.94-44.66,193.41-509.18,243.33-705.5,0,0,238.98-49.1,407.89-232.53,168.91-183.43,120.9-352.52,60.36-402.35-57.09-47.01-224.73-80.14-379.48,83.32-175.81,185.7-202.76,437.93-202.94,439.29,0,0-253.41,80.96-460.98-126.61-228.9-228.9-154.21-403.26-154.21-403.26,0,0,88.86,89.31,204.4,112.45,141.95,28.41,238.52-14.43,266.93-124.07,25.32-98.02-63.9-203.22-192.6-227.45-107.37-20.24-236.62,16.97-236.62,16.97,0,0,9.71-204.94,226.18-308.23,216.47-103.2,378.39,34.58,378.39,34.58l61.17-116.36c3.54,2.9-205.12-157.47-471.24-56.27-193.51,73.52-354.43,267.84-317.67,529.14-155.57,214.65-40.84,459.35,170.18,657.48,221.82,208.21,502.19,151.48,502.19,151.48-45.47,157.75-52.01,518.34-146.85,541.58-108.73,26.59-390.73-329.2-603.57-121.89-224.82,218.92-9.35,490.03,251.96,661.39,261.3,171.27,554.2,246.42,721.47,53.73,185.52-213.75-33.67-492.93,92.4-661.48,120.53-161.19,237.62-160.2,314.04-102.11,108.73,82.59,109.28,187.61,44.47,286.45-101.11,154.39-254.5,179.98-235.26,328.2,8.8,63.35,43.48,120.26,95.75,157.2.18-.18,82.77-62.9,89.4-123.07m-947.02-1792.47c87.59,26.87,79.05,119.53-25.5,92.4-69.52-18.06-146.76-84.68-146.76-84.68,0,0,99.66-29.95,172.27-7.71m502.46,586.96c.45-1.27,57.54-222.28,149.4-314.31,91.22-91.22,179.44-60.99,179.16-60.81.54.54,38.03,96.3-49.19,190.87-114.09,123.8-278.1,183.79-279.37,184.25"/></g></g></g></g></g></g><g id="Mosaic_2017-mobile"><g id="Artwork_17"><g id="Group_913"><rect id="Rectangle_1415" class="cls-9" x="-22.08" y="746.77" width="664.65" height="664.65"/><rect id="Rectangle_1416" class="cls-4" x="446.98" y="855.6" width="89.13" height="552.02"/><rect id="Rectangle_1417" class="cls-4" x="224.25" y="929.48" width="89.13" height="478.14"/><g id="Group_912"><g class="cls-27"><g id="Group_911"><path id="Path_823" class="cls-18" d="m1315.94,1407.61c0,365.86-299.24,662.38-668.37,662.38S-20.8,1773.39-20.8,1407.61s299.24-662.38,668.37-662.38,668.37,296.61,668.37,662.38m-111.37,0c0-304.87-249.42-552.02-557.01-552.02S90.56,1102.74,90.56,1407.61s249.42,552.02,557.01,552.02,556.92-247.15,557.01-552.02"/></g></g></g></g></g></g><g id="Mosaic_2018"><g id="Group_910"><rect id="Rectangle_1398" class="cls-7" x="-22.08" y="1411.15" width="661.84" height="661.84"/><rect id="Rectangle_1399" class="cls-14" x="69.41" y="1502.73" width="84.5" height="84.5"/><rect id="Rectangle_1400" class="cls-14" x="198.57" y="1499.47" width="88.22" height="88.22"/><rect id="Rectangle_1401" class="cls-14" x="329.99" y="1502.73" width="91.49" height="84.5"/><rect id="Rectangle_1402" class="cls-14" x="463.23" y="1499.47" width="88.22" height="88.22"/><rect id="Rectangle_1403" class="cls-14" x="66.15" y="1631.8" width="88.22" height="88.22"/><rect id="Rectangle_1404" class="cls-14" x="198.57" y="1631.8" width="88.22" height="88.22"/><rect id="Rectangle_1405" class="cls-14" x="330.9" y="1631.8" width="88.22" height="88.22"/><rect id="Rectangle_1406" class="cls-14" x="463.23" y="1631.8" width="88.22" height="88.22"/><rect id="Rectangle_1407" class="cls-14" x="69.41" y="1763.22" width="84.5" height="91.58"/><rect id="Rectangle_1408" class="cls-14" x="198.57" y="1764.22" width="88.22" height="88.22"/><rect id="Rectangle_1409" class="cls-14" x="329.99" y="1763.22" width="91.49" height="91.58"/><rect id="Rectangle_1410" class="cls-14" x="463.23" y="1764.22" width="88.22" height="88.22"/><rect id="Rectangle_1411" class="cls-14" x="66.15" y="1896.55" width="88.22" height="88.22"/><rect id="Rectangle_1412" class="cls-14" x="198.57" y="1896.55" width="88.22" height="88.22"/><rect id="Rectangle_1413" class="cls-14" x="330.9" y="1896.55" width="88.22" height="88.22"/><rect id="Rectangle_1414" class="cls-14" x="463.23" y="1896.55" width="88.22" height="88.22"/></g></g><g id="mosaic_2019-_mobile"><g id="Artwork_6"><g id="Group_915"><rect id="Rectangle_1420" class="cls-13" x="-23.35" y="86.84" width="665.11" height="660.02"/><path id="Path_828" class="cls-17" d="m636.95,746.05c-111.91,0-281-103.2-296.97-281.09,17.34,14.79,39.3,22.87,62.08,22.87,53.91-.64,97.21-44.93,96.48-98.84-.27-25.05-10.26-49.1-27.77-67.07,19.06-44.2-1.27-95.48-45.38-114.54-8.89-3.81-18.24-6.17-27.86-6.9-15.61-50.65-69.34-79.05-119.99-63.35-30.5,9.44-54.28,33.31-63.53,63.9-47.74,6.44-81.14,50.37-74.7,98.11,1.09,7.9,3.18,15.61,6.35,22.87-37.67,38.66-36.94,100.47,1.72,138.14,17.97,17.52,41.93,27.41,67.07,27.77,21.96,0,43.2-7.53,60.27-21.33-16.25,176.99-185.16,279.55-296.79,279.55l659.03-.09h0Z"/></g></g></g></g><ellipse class="cls-20" cx="1000" cy="1000" rx="713.89" ry="688.6"/><path class="cls-10" d="m665.89,810.63c0-49.76,33-60.94,74.91-80.5,69.86-33,118.29-74.51,118.29-120.15s-45.11-79.17-95.4-79.17c-39.52,0-67.46,14.5-72.65,51.23h-27.41c5.06-39.52,32.6-75.44,105.25-75.44,67.99,0,113.1,48.83,113.1,101.52,0,68.39-60.01,106.58-128.93,141.97-46.97,24.62-61.87,28.34-61.87,61.87h189.08v23.68h-214.23v-25.02h-.13Z"/><path class="cls-10" d="m1232.46,838.18c-46.97,0-81.03-19.03-103.79-48.83-22.35-30.2-33.93-71.72-33.93-116.43s11.18-87.02,33.93-116.83c22.75-29.81,57.22-48.43,103.79-48.43s81.03,19.56,103.79,49.37c22.75,30.2,33.93,71.72,33.93,115.89s-11.18,86.09-33.93,116.43c-22.75,29.67-57.22,48.83-103.79,48.83m0-305.5c-39.52,0-68.92,15.83-87.02,41.91-18.63,26.08-26.08,61.47-26.08,98.2s7.45,72.12,25.55,98.2c18.63,26.08,47.9,42.85,87.55,42.85s68.39-16.77,86.62-42.85c18.63-26.08,26.08-61.47,26.08-98.2.53-37.26-7.45-72.12-26.08-98.2-18.1-26.08-47.5-41.91-86.62-41.91"/><path class="cls-10" d="m580.33,962.19h55.89c14.1,0,25.41,3.46,33.66,10.38,8.25,6.92,12.37,15.7,12.37,26.48s-3.46,19.29-10.51,25.68c-6.92,6.39-18.89,9.45-35.53,9.45h-19.69v28.61c0,1.06-.4,2-1.2,2.79-.8.8-1.73,1.2-2.79,1.2h-32.2c-1.06,0-2-.4-2.79-1.2-.8-.8-1.2-1.73-1.2-2.79v-96.6c0-1.06.4-2,1.2-2.79.67-.8,1.6-1.2,2.79-1.2m36.33,27.81v16.5h18.89c2.26,0,4.12-.67,5.59-2.13,1.46-1.46,2.13-3.33,2.13-5.85s-.67-4.52-2.13-6.12c-1.46-1.6-3.33-2.4-5.72-2.4h-18.76Z"/><path class="cls-10" d="m761.43,962.19h31.27c.93,0,1.73.27,2.26.93.67.67.93,1.33.93,2s-.13,1.33-.4,2l-37.66,62.4v33.26c0,1.06-.4,2-1.2,2.79s-1.73,1.2-2.79,1.2h-31.8c-1.06,0-2-.4-2.79-1.2-.8-.8-1.2-1.73-1.2-2.79v-33.26l-37.52-62.27c-.27-.67-.4-1.2-.4-2s.27-1.33.93-2c.67-.67,1.46-.93,2.26-.93h31.54c2.79,0,4.79,1.2,6.12,3.46l16.9,29.54,17.3-29.27c1.46-2.66,3.59-3.86,6.25-3.86"/><path class="cls-10" d="m841.26,1003.17v22.62c0,3.86,1.33,6.79,4.12,8.92,2.79,2.13,6.39,3.06,10.78,3.06s7.58-.67,9.58-2,3.73-3.19,5.06-5.85c1.33-2.53,3.06-3.86,5.32-3.86h32.2c.93,0,1.73.27,2.26.93.67.67.93,1.46.93,2.26,0,9.18-4.39,17.43-13.17,25.02-4.39,3.73-10.25,6.79-17.43,9.05-7.32,2.26-15.83,3.46-25.68,3.46s-18.89-1.46-27.01-4.39c-8.12-2.93-14.77-7.85-19.83-14.64-5.06-6.79-7.58-15.04-7.58-24.88v-17.16c0-9.85,2.53-18.1,7.58-24.88,9.58-12.64,25.55-18.89,48.03-18.89,9.05,0,17.3,1.2,24.48,3.46,7.32,2.26,13.04,5.32,17.43,9.05,8.78,7.58,13.17,15.83,13.17,25.02,0,.93-.27,1.6-.93,2.26s-1.46.93-2.26.93h-32.33c-2.13,0-3.99-1.33-5.32-3.86-1.33-2.53-3.06-4.52-5.06-5.85-2-1.33-5.19-2-9.58-2s-7.98,1.06-10.78,3.06c-2.66,2.4-3.99,5.32-3.99,9.18"/><path class="cls-10" d="m1033.4,1005.57v17.83c0,9.98-2.53,18.36-7.45,25.02-4.92,6.65-11.44,11.44-19.56,14.24-8.12,2.79-17.56,4.26-28.61,4.26s-20.49-1.46-28.61-4.26c-8.12-2.79-14.64-7.58-19.56-14.24-4.92-6.65-7.45-15.17-7.45-25.41v-17.16c0-14.64,5.19-25.68,15.43-33,10.38-7.32,23.68-10.91,40.18-10.91s29.81,3.59,40.18,10.91c10.25,7.45,15.3,18.36,15.43,32.73m-70.92-2.4v22.62c0,3.86,1.33,6.79,4.12,8.92s6.39,3.06,11.18,3.06,8.38-1.06,11.18-3.19c2.79-2.13,4.12-5.06,4.12-8.92v-22.35c0-3.86-1.33-6.79-4.12-8.92-2.79-2.13-6.39-3.19-11.18-3.19s-8.38,1.06-11.18,3.06c-2.79,2-4.12,5.06-4.12,8.92"/><path class="cls-10" d="m1119.49,962.19h27.81c1.06,0,2,.4,2.79,1.2s1.2,1.73,1.2,2.79v96.6c0,1.06-.4,2-1.2,2.79-.8.8-1.73,1.2-2.79,1.2h-24.08c-2.4,0-4.39-1.06-5.99-3.19l-32.6-41.51v40.72c0,1.06-.4,2-1.2,2.79-.8.8-1.73,1.2-2.79,1.2h-27.81c-1.06,0-2-.4-2.79-1.2-.8-.8-1.2-1.73-1.2-2.79v-96.6c0-1.06.4-2,1.2-2.79.8-.8,1.73-1.2,2.79-1.2h24.22c2.4,0,4.39.93,5.85,2.93l32.6,44.97v-43.91c0-1.06.4-2,1.2-2.79.67-.8,1.6-1.2,2.79-1.2"/><path class="cls-10" d="m1308.84,1056.26c-9.85,7.19-23.15,10.78-39.78,10.78s-30.07-3.59-39.78-10.78c-9.85-7.19-14.77-18.36-14.77-33.66v-56.42c0-1.06.4-2,1.2-2.79.8-.8,1.73-1.2,2.79-1.2h31.27c1.06,0,2,.4,2.79,1.2s1.2,1.73,1.2,2.79v58.41c0,3.99,1.33,7.05,4.12,9.18,2.79,2.13,6.39,3.19,11.18,3.19s8.38-1.06,11.18-3.19c2.79-2.13,4.12-5.19,4.12-9.18v-58.41c0-1.06.4-2,1.2-2.79.8-.8,1.73-1.2,2.79-1.2h31.14c1.06,0,2,.4,2.79,1.2.8.8,1.2,1.73,1.2,2.79v56.42c.13,15.17-4.79,26.48-14.64,33.66"/><path class="cls-10" d="m1434.84,1011.29c6.92,4.92,10.38,12.37,10.38,22.35s-5.06,17.96-15.04,24.08c-10.11,6.12-23.42,9.18-40.05,9.18s-29.54-3.06-38.85-9.05c-9.18-6.12-13.84-13.57-13.84-22.49,0-2.13,1.2-3.19,3.46-3.19h30.6c2.13,0,3.86.67,5.06,1.86,2.79,2.53,7.58,3.86,14.5,3.86,9.45,0,14.24-1.46,14.24-4.12,0-1.73-1.46-3.06-4.52-4.12-2.93-1.06-8.92-2-17.83-2.93-28.21-3.33-42.31-13.71-42.31-31.27,0-9.98,4.52-17.96,13.57-24.08,9.05-6.12,21.16-9.18,36.46-9.18s27.54,3.33,36.86,9.85c9.31,6.52,14.1,13.57,14.1,20.89,0,.93-.27,1.73-.93,2.4-.67.53-1.46.93-2.66.93h-32.07c-1.73,0-3.33-.53-4.66-1.73-2.4-2.13-5.99-3.06-10.78-3.06-6.65,0-9.98,1.33-9.98,3.99,0,1.46,1.33,2.53,3.86,3.33,2.53.8,7.85,1.6,15.57,2.53,16.37,1.73,27.94,5.06,34.86,9.98"/><polygon class="cls-10" points="685.98 889.27 676 909.9 676 920.54 670.68 920.54 670.68 909.9 660.7 889.27 666.03 889.27 673.34 904.44 680.66 889.27 685.98 889.27"/><polygon class="cls-10" points="724.7 920.54 707.81 920.54 707.81 889.27 724.7 889.27 724.7 894.33 713.26 894.33 713.26 902.98 722.58 902.98 722.58 907.5 713.26 907.5 713.26 915.62 724.7 915.62 724.7 920.54"/><path class="cls-10" d="m746.13,920.54l9.71-31.27h6.79l9.71,31.27h-5.72l-2.26-7.58h-10.25l-2.26,7.58h-5.72Zm13.04-24.48l-3.73,12.37h7.32l-3.59-12.37Z"/><path class="cls-10" d="m815.85,920.54h-6.39l-7.19-12.24h-2.66v12.24h-5.32v-31.27h11.71c1.6,0,2.93.4,4.26,1.33,1.2.93,2.13,2.13,2.93,3.46.67,1.46,1.06,3.06,1.06,4.66,0,1.2-.27,2.53-.8,3.73s-1.2,2.26-2,3.19c-.8.93-1.86,1.73-3.06,2.13l7.45,12.77h0Zm-7.19-21.69c0-.53-.13-1.2-.4-1.86-.27-.67-.67-1.2-1.06-1.6-.4-.4-.93-.67-1.6-.67h-6.12v7.98h6.12c.53,0,1.06-.13,1.6-.53.4-.4.8-.93,1.06-1.46.27-.67.4-1.33.4-1.86"/><path class="cls-10" d="m848.18,921.07c-1.33,0-2.66-.27-3.99-.67-1.33-.4-2.66-.93-3.86-1.73-1.2-.8-2.13-1.6-3.06-2.4l3.99-3.86c.93.93,2,1.73,3.19,2.26,1.33.53,2.4.8,3.59.8,1.46,0,2.53-.4,3.59-1.2.93-.8,1.46-1.73,1.46-2.93,0-.93-.4-1.73-1.06-2.4s-1.6-1.2-2.53-1.46c-2.66-.67-4.92-1.46-6.79-2.26s-3.19-1.86-4.12-3.19-1.2-3.06-.93-5.32c.27-1.73.8-3.19,1.73-4.26.93-1.2,2.13-2,3.59-2.53,1.46-.53,3.06-.8,4.79-.8,1.6,0,3.19.27,4.92.8,1.73.53,3.46,1.33,5.19,2.4l-3.86,3.99c-.8-.53-1.86-.93-2.79-1.2-1.06-.27-2-.53-3.19-.53-.8,0-1.6,0-2.4.27-.8.13-1.46.53-1.86.93-.53.53-.8,1.06-.8,1.86s.13,1.6.67,2c.53.53,1.2.93,2,1.2.8.27,1.86.67,2.93.93,2.13.53,3.86,1.2,5.32,2s2.53,1.73,3.33,2.93c.8,1.2,1.2,2.79,1.2,4.79,0,1.86-.4,3.46-1.33,4.92s-2.13,2.66-3.73,3.46c-1.6.8-3.33,1.2-5.19,1.2"/><path class="cls-10" d="m930.02,921.07c-2.13,0-4.12-.4-5.99-1.33-1.86-.8-3.46-2-4.79-3.33-1.46-1.46-2.53-3.06-3.33-5.06-.8-1.86-1.2-4.12-1.2-6.39,0-2.4.4-4.39,1.2-6.39s1.86-3.59,3.33-5.06c1.33-1.46,2.93-2.53,4.79-3.46,1.86-.8,3.86-1.2,5.99-1.2,2.26,0,4.39.53,6.52,1.6,2.13,1.06,3.99,2.66,5.72,4.79l-4.39,3.59c-1.2-1.46-2.53-2.66-3.86-3.33s-2.66-1.06-4.12-1.06-2.53.27-3.73.8-2.13,1.33-3.06,2.26c-.93.93-1.6,2-2.13,3.33s-.8,2.66-.8,4.26.27,2.93.8,4.12,1.2,2.4,2.13,3.33,1.86,1.73,3.06,2.26c1.2.53,2.4.8,3.73.8s2.79-.27,4.12-1.06c1.33-.67,2.53-1.73,3.86-3.33l4.39,3.59c-1.73,2.13-3.73,3.73-5.72,4.79-2,1.06-4.26,1.46-6.52,1.46"/><polygon class="cls-10" points="980.98 920.54 964.21 920.54 964.21 889.27 980.98 889.27 980.98 894.33 969.53 894.33 969.53 902.98 978.85 902.98 978.85 907.5 969.53 907.5 969.53 915.62 980.98 915.62 980.98 920.54"/><polygon class="cls-10" points="1017.57 920.54 1002.93 920.54 1002.93 889.27 1008.25 889.27 1008.25 915.35 1017.57 915.35 1017.57 920.54"/><polygon class="cls-10" points="1056.42 920.54 1039.52 920.54 1039.52 889.27 1056.42 889.27 1056.42 894.33 1044.85 894.33 1044.85 902.98 1054.16 902.98 1054.16 907.5 1044.85 907.5 1044.85 915.62 1056.42 915.62 1056.42 920.54"/><path class="cls-10" d="m1078.24,920.54v-31.27h11.84c1.6,0,3.06.4,4.26,1.2s2.13,1.86,2.79,3.19,1.06,2.79,1.06,4.39c0,.93-.13,2-.4,2.93-.27,1.06-.8,2-1.33,2.79,1.06.8,1.86,1.86,2.4,3.19.53,1.2.8,2.53.8,3.99,0,1.2-.27,2.26-.67,3.46-.4,1.06-1.06,2.13-1.73,3.06-.8.93-1.6,1.6-2.66,2.13-.93.53-2.13.8-3.19.8l-13.17.13h0Zm5.59-18.23h6.25c.53,0,1.06-.27,1.46-.67s.8-.93,1.06-1.6.4-1.33.4-1.86c0-.93-.27-1.6-.67-2.26-.53-.67-1.06-.93-2-.93h-6.39l-.13,7.32h0Zm0,12.64h7.72c.53,0,.93-.13,1.33-.67.4-.4.8-.93,1.06-1.46s.4-1.2.4-1.86c0-.93-.27-1.73-.8-2.4-.53-.67-1.06-1.06-1.86-1.06h-7.85v7.45h0Z"/><path class="cls-10" d="m1143.31,920.54h-6.39l-7.19-12.24h-2.66v12.24h-5.32v-31.27h11.71c1.6,0,2.93.4,4.26,1.33,1.2.93,2.13,2.13,2.93,3.46.67,1.46,1.06,3.06,1.06,4.66,0,1.2-.27,2.53-.8,3.73-.53,1.2-1.2,2.26-2,3.19-.8.93-1.86,1.73-3.06,2.13l7.45,12.77h0Zm-7.19-21.69c0-.53-.13-1.2-.4-1.86s-.67-1.2-1.06-1.6c-.4-.4-.93-.67-1.6-.67h-6.12v7.98h6.12c.53,0,1.06-.13,1.6-.53.4-.4.8-.93,1.06-1.46.27-.67.4-1.33.4-1.86"/><path class="cls-10" d="m1164.73,920.54l9.71-31.27h6.79l9.71,31.27h-5.85l-2.26-7.58h-10.25l-2.26,7.58h-5.59Zm13.04-24.48l-3.73,12.37h7.32l-3.59-12.37Z"/><polygon class="cls-10" points="1235.39 894.19 1226.47 894.19 1226.47 920.54 1221.15 920.54 1221.15 894.19 1212.23 894.19 1212.23 889.27 1235.39 889.27 1235.39 894.19"/><rect class="cls-10" x="1257.21" y="889.27" width="5.32" height="31.27"/><path class="cls-10" d="m1315.09,904.84c0,2.26-.4,4.39-1.2,6.25-.8,2-1.86,3.59-3.33,5.06-1.46,1.46-3.06,2.66-4.92,3.46-1.86.8-3.86,1.2-5.99,1.2s-4.12-.4-5.99-1.33c-1.86-.8-3.46-2-4.92-3.46-1.46-1.46-2.53-3.19-3.33-5.19-.8-2-1.2-3.99-1.2-6.25s.4-4.26,1.2-6.12c.8-1.86,1.86-3.59,3.33-5.06,1.46-1.46,3.06-2.66,4.92-3.46,1.86-.8,3.86-1.2,5.85-1.2s4.12.4,5.85,1.2c1.86.8,3.46,2,4.92,3.46,1.46,1.46,2.53,3.19,3.33,5.06,1.06,2.13,1.46,4.26,1.46,6.39m-5.46,0c0-2-.4-3.73-1.33-5.32-.93-1.6-2-2.93-3.46-3.86-1.46-.93-3.06-1.46-4.92-1.46-1.73,0-3.46.53-4.92,1.46-1.46.93-2.66,2.26-3.59,3.86-.93,1.6-1.33,3.33-1.33,5.32s.4,3.73,1.33,5.46c.93,1.6,2.13,2.93,3.59,3.99,1.46.93,3.19,1.46,4.92,1.46s3.46-.53,4.92-1.46c1.46-.93,2.66-2.26,3.46-3.99.8-1.73,1.33-3.46,1.33-5.46"/><polygon class="cls-10" points="1360.33 920.54 1353.54 920.54 1342.37 896.32 1342.37 920.54 1337.04 920.54 1337.04 889.27 1344.5 889.27 1355.01 913.09 1355.01 889.27 1360.33 889.27 1360.33 920.54"/><path class="cls-10" d="m665.89,1470.34c0-49.76,33-60.94,74.91-80.5,69.86-33,118.29-74.51,118.29-120.15s-45.11-79.17-95.4-79.17c-39.52,0-67.46,14.5-72.65,51.23h-27.41c5.06-39.52,32.6-75.44,105.25-75.44,67.99,0,113.1,48.83,113.1,101.52,0,68.39-60.01,106.58-128.93,141.97-46.97,24.62-61.87,28.34-61.87,61.87h189.08v23.68h-214.23v-25.02h-.13Z"/><path class="cls-10" d="m1136.39,1443.33l23.68-7.45c16.77,23.29,46.97,39.52,74.91,39.52,43.24,0,80.5-29.81,80.5-68.39s-37.66-69.32-80.5-69.32h-27.01v-21.42h27.01c41.91,0,73.58-26.61,73.58-62.8s-34.86-61.87-70.79-61.87c-30.74,0-59.08,18.1-67.99,48.43l-24.62-7.45c12.11-40.05,53.09-64.67,92.61-64.67,51.63,0,95,33.53,95,85.69,0,25.55-8.78,50.3-44.18,73.58,39.52,18.63,51.23,52.16,51.23,80.1,0,53.49-49.37,92.21-104.72,92.21-45.64-.27-77.31-20.76-98.73-56.15"/></g></g></svg>