<svg width="435" height="191" viewBox="0 0 435 191" fill="none" xmlns="http://www.w3.org/2000/svg">
<path d="M293.811 106.497C297.65 105.368 301.984 104.674 305.643 106.099C307.736 106.914 309.598 108.431 310.689 110.698C311.713 112.827 311.776 115.029 311.521 116.847C311.033 120.335 309.15 124.037 306.773 127.592C304.244 131.373 300.984 135.784 297.972 139.932C296.098 142.513 294.319 144.996 292.774 147.273C300.129 143.432 308.46 137.901 316.431 132.819C321.347 129.684 326.187 126.69 330.241 124.729C332.252 123.755 334.376 122.883 336.411 122.435C338.168 122.048 341.139 121.684 343.9 123.286L344.167 123.447L344.403 123.601C346.808 125.213 348.058 127.586 348.454 129.975C348.818 132.174 348.459 134.292 348.047 135.906C347.244 139.05 345.546 142.668 344.479 145.139C344.303 145.548 344.137 145.937 343.984 146.306C344.868 145.874 345.933 145.273 347.203 144.453C350.509 142.319 354.076 139.486 358.299 136.285C362.362 133.204 366.912 129.882 371.641 127.337C376.346 124.804 381.714 122.769 387.4 122.769H411.857C415.249 122.769 418 125.52 418 128.912C418 132.305 415.25 135.056 411.857 135.056H387.4C384.588 135.056 381.305 136.088 377.463 138.156C373.644 140.211 369.748 143.022 365.722 146.075C361.854 149.007 357.687 152.309 353.868 154.775C350.224 157.128 345.648 159.59 340.891 159.59C338.654 159.59 335.902 159.16 333.648 157.272C331.192 155.215 330.507 152.446 330.467 150.309C330.429 148.31 330.922 146.383 331.406 144.882C331.911 143.312 332.578 141.708 333.199 140.269C333.888 138.672 334.504 137.295 335.008 136.077C331.783 137.696 327.726 140.189 323.036 143.179C313.474 149.276 301.348 157.439 291.413 161.464C288.955 162.46 286.404 163.258 284.059 163.289C282.833 163.305 281.179 163.122 279.567 162.201C277.783 161.182 276.612 159.577 276.075 157.807C275.201 154.922 276.155 152.11 276.714 150.67C277.414 148.867 278.452 146.943 279.577 145.074C281.84 141.312 284.978 136.916 288.029 132.714C291.156 128.407 294.202 124.286 296.56 120.76C297.266 119.706 297.803 118.796 298.21 118.029C297.923 118.102 297.612 118.185 297.277 118.284C294.233 119.179 290.062 120.939 284.691 123.831C272.313 130.495 272.47 130.645 266.151 134.095C261.208 136.794 250.388 144.267 238.072 144.783L237.943 144.788H223.776C220.383 144.788 217.633 142.038 217.633 138.645C217.633 135.252 220.383 132.502 223.776 132.502H237.66C246.248 132.104 253.593 126.953 260.262 123.311C265.581 120.407 266.977 119.413 278.867 113.013C284.648 109.9 289.648 107.72 293.811 106.497Z" fill="#FFD779"/>
<path d="M293.811 103.768C297.65 102.639 301.984 101.945 305.643 103.37C307.736 104.185 309.598 105.702 310.689 107.969C311.713 110.098 311.776 112.3 311.521 114.118C311.033 117.606 309.15 121.308 306.773 124.863C304.244 128.644 300.984 133.055 297.972 137.203C296.098 139.784 294.319 142.267 292.774 144.544C300.129 140.703 308.46 135.172 316.431 130.09C321.347 126.955 326.187 123.961 330.241 122C332.252 121.026 334.376 120.154 336.411 119.706C338.168 119.319 341.139 118.955 343.9 120.557L344.167 120.718L344.403 120.872C346.808 122.484 348.058 124.857 348.454 127.246C348.818 129.445 348.459 131.563 348.047 133.177C347.244 136.321 345.546 139.939 344.479 142.41C344.303 142.819 344.137 143.208 343.984 143.577C344.868 143.145 345.933 142.544 347.203 141.724C350.509 139.59 354.076 136.757 358.299 133.556C362.362 130.475 366.912 127.153 371.641 124.608C376.346 122.075 381.714 120.04 387.4 120.04H411.857C415.249 120.04 418 122.791 418 126.183C418 129.576 415.25 132.327 411.857 132.327H387.4C384.588 132.327 381.305 133.359 377.463 135.427C373.644 137.482 369.748 140.293 365.722 143.346C361.854 146.278 357.687 149.58 353.868 152.046C350.224 154.399 345.648 156.861 340.891 156.861C338.654 156.861 335.902 156.431 333.648 154.543C331.192 152.486 330.507 149.717 330.467 147.58C330.429 145.581 330.922 143.654 331.406 142.153C331.911 140.583 332.578 138.979 333.199 137.54C333.888 135.943 334.504 134.566 335.008 133.348C331.783 134.967 327.726 137.46 323.036 140.45C313.474 146.547 301.348 154.71 291.413 158.735C288.955 159.731 286.404 160.529 284.059 160.56C282.833 160.576 281.179 160.393 279.567 159.472C277.783 158.453 276.612 156.848 276.075 155.078C275.201 152.193 276.155 149.381 276.714 147.941C277.414 146.138 278.452 144.214 279.577 142.345C281.84 138.583 284.978 134.187 288.029 129.985C291.156 125.678 294.202 121.557 296.56 118.031C297.266 116.977 297.803 116.067 298.21 115.3C297.923 115.373 297.612 115.456 297.277 115.555C294.233 116.45 290.062 118.21 284.691 121.102C272.313 127.766 272.47 127.916 266.151 131.366C261.208 134.065 250.388 141.538 238.072 142.054L237.943 142.059H223.776C220.383 142.059 217.633 139.309 217.633 135.916C217.633 132.523 220.383 129.773 223.776 129.773H237.66C246.248 129.375 253.593 124.224 260.262 120.582C265.581 117.678 266.977 116.684 278.867 110.284C284.648 107.171 289.648 104.991 293.811 103.768Z" fill="#DD04D2"/>
<path d="M293.811 100.127C297.65 98.998 301.984 98.3045 305.643 99.7292C307.736 100.544 309.598 102.061 310.689 104.328C311.713 106.457 311.776 108.659 311.521 110.477C311.033 113.965 309.15 117.667 306.773 121.222C304.244 125.003 300.984 129.414 297.972 133.562C296.098 136.143 294.319 138.626 292.774 140.903C300.129 137.062 308.46 131.531 316.431 126.449C321.347 123.314 326.187 120.32 330.241 118.359C332.252 117.386 334.376 116.513 336.411 116.065C338.168 115.678 341.139 115.314 343.9 116.916L344.167 117.077L344.403 117.231C346.808 118.843 348.058 121.216 348.454 123.606C348.818 125.804 348.459 127.922 348.047 129.536C347.244 132.68 345.546 136.298 344.479 138.769C344.303 139.178 344.137 139.567 343.984 139.937C344.868 139.504 345.933 138.903 347.203 138.083C350.509 135.949 354.076 133.116 358.299 129.915C362.362 126.834 366.912 123.512 371.641 120.967C376.346 118.434 381.714 116.399 387.4 116.399H411.857C415.249 116.399 418 119.15 418 122.542C418 125.935 415.25 128.686 411.857 128.686H387.4C384.588 128.686 381.305 129.718 377.463 131.786C373.644 133.841 369.748 136.652 365.722 139.705C361.854 142.637 357.687 145.939 353.868 148.405C350.224 150.758 345.648 153.22 340.891 153.22C338.654 153.22 335.902 152.79 333.648 150.902C331.192 148.845 330.507 146.076 330.467 143.939C330.429 141.941 330.922 140.013 331.406 138.512C331.911 136.942 332.578 135.338 333.199 133.899C333.888 132.302 334.504 130.925 335.008 129.707C331.783 131.326 327.726 133.819 323.036 136.809C313.474 142.906 301.348 151.069 291.413 155.094C288.955 156.09 286.404 156.888 284.059 156.919C282.833 156.936 281.179 156.752 279.567 155.831C277.783 154.812 276.612 153.207 276.075 151.437C275.201 148.552 276.155 145.74 276.714 144.3C277.414 142.498 278.452 140.574 279.577 138.704C281.84 134.942 284.978 130.547 288.029 126.344C291.156 122.037 294.202 117.916 296.56 114.391C297.266 113.336 297.803 112.427 298.21 111.659C297.923 111.732 297.612 111.816 297.277 111.914C294.233 112.809 290.062 114.57 284.691 117.461C272.313 124.125 272.47 124.275 266.151 127.725C261.208 130.424 250.388 137.897 238.072 138.413L237.943 138.419H223.776C220.383 138.419 217.633 135.668 217.633 132.275C217.633 128.882 220.383 126.132 223.776 126.132H237.66C246.248 125.734 253.593 120.583 260.262 116.941C265.581 114.037 266.977 113.043 278.867 106.643C284.648 103.53 289.648 101.351 293.811 100.127Z" fill="#25C8EB"/>
<ellipse cx="409.99" cy="120.276" rx="1.89605" ry="1.71889" fill="#282727"/>
<ellipse cx="409.358" cy="119.702" rx="0.421211" ry="0.572779" fill="white"/>
<ellipse cx="226.486" cy="130.307" rx="1.89605" ry="1.71889" fill="#282727"/>
<ellipse cx="227.117" cy="130.021" rx="0.421211" ry="0.572779" fill="white"/>
<path d="M44.8451 123.09C45.8736 121.986 45.802 121.178 45.802 120.37C45.802 117.578 43.0797 115.373 39.4057 115.373C35.7317 115.373 32.9327 117.578 32.9327 120.37H30.7273C30.7273 116.401 34.7749 113.169 39.4057 113.169C44.0366 113.169 48.0125 116.401 48.0125 120.37C48.0125 121.766 47.7157 123.162 46.7639 124.118C38.8838 132.28 23.2207 143.597 23.2207 157.266H21.0153C21.0153 142.932 35.4298 132.863 44.8451 123.09ZM52.5666 127.427C54.2603 125.663 54.6236 122.942 54.6236 120.37C54.6236 112.725 47.9306 106.552 39.4006 106.552C30.8706 106.552 24.106 112.725 24.106 120.37H21.8954C21.8954 111.548 29.9137 104.348 39.4006 104.348C48.8875 104.348 56.8291 111.548 56.8291 120.37C56.8291 123.31 56.389 126.399 54.4752 128.383C49.6192 133.456 41.606 139.7 36.6067 146.241H57.4175V148.445H35.0614C34.6214 149.181 34.1813 149.917 33.8129 150.649H57.4175V152.853H32.856C32.5643 153.589 32.4159 154.32 32.2675 155.057H57.4175V157.261H29.8421C29.8421 145.647 44.185 136.243 52.5666 127.422V127.427ZM48.6675 125.223C49.8444 123.975 50.2128 122.134 50.2128 120.37C50.2128 115.154 45.5052 110.96 39.4006 110.96C33.2961 110.96 28.5168 115.154 28.5168 120.37H26.3114C26.3114 113.977 32.3443 108.756 39.4006 108.756C46.4569 108.756 52.4182 113.972 52.4182 120.37C52.4182 122.502 52.0498 124.778 50.5812 126.322C42.9313 134.336 27.6367 144.916 27.6367 157.266H25.4313C25.4313 144.405 39.7742 134.556 48.6726 125.223H48.6675Z" fill="white"/>
<path d="M48.0125 120.37C48.0125 116.401 44.0366 113.169 39.4057 113.169C34.7749 113.169 30.7273 116.401 30.7273 120.37H32.9327C32.9327 117.578 35.7317 115.373 39.4057 115.373C43.0797 115.373 45.802 117.578 45.802 120.37L45.7972 120.98C45.7692 121.6 45.6161 122.262 44.8451 123.09C35.4298 132.863 21.0153 142.932 21.0153 157.266H23.2207C23.2207 143.597 38.8838 132.28 46.7639 124.118C47.5966 123.282 47.9284 122.108 47.9983 120.893L48.0125 120.37ZM50.1942 121.034C50.1075 122.585 49.6972 124.131 48.6675 125.223H48.6726C39.7742 134.556 25.4313 144.405 25.4313 157.266H27.6367C27.6367 144.916 42.9313 134.336 50.5812 126.322C51.8663 124.971 52.3087 123.059 52.3992 121.174L52.4182 120.37C52.4182 114.172 46.8239 109.083 40.0592 108.771L39.4006 108.756V106.552C47.9306 106.552 54.6236 112.725 54.6236 120.37C54.6236 122.942 54.2603 125.663 52.5666 127.427V127.422C44.185 136.243 29.8421 145.647 29.8421 157.261H57.4175V155.057H32.2675C32.4159 154.32 32.5643 153.589 32.856 152.853H57.4175V150.649H33.8129C34.1813 149.917 34.6214 149.181 35.0614 148.445H57.4175V146.241H36.6067C41.606 139.7 49.6192 133.456 54.4752 128.383C56.2693 126.523 56.7682 123.692 56.8236 120.923L56.8291 120.37C56.8291 111.548 48.8875 104.348 39.4006 104.348L39.4005 100.333C50.7632 100.333 60.8441 109.004 60.8441 120.37C60.8441 123.423 60.4548 127.955 57.3739 131.159L57.3752 131.16C54.8413 133.807 51.4334 136.812 48.3316 139.7C47.4286 140.541 46.5406 141.384 45.6783 142.225H61.4323V161.276H31.6522V161.281H17V157.266C17.0001 148.674 21.3373 141.654 26.3612 135.842C28.8887 132.918 31.6956 130.181 34.3839 127.627C37.0553 125.088 39.5558 122.776 41.7872 120.473C41.787 120.441 41.7872 120.406 41.7872 120.37C41.7872 120.34 41.783 120.313 41.7597 120.268C41.7324 120.216 41.6599 120.107 41.4931 119.975C41.151 119.705 40.4599 119.388 39.4057 119.388C38.3481 119.388 37.6249 119.708 37.2543 119.996C37.0743 120.136 36.9969 120.25 36.9693 120.302C36.9468 120.344 36.9484 120.36 36.9484 120.37V124.385H17.8797V120.37C17.8797 108.982 28.0616 100.333 39.4005 100.333L39.4006 104.348C29.9137 104.348 21.8954 111.548 21.8954 120.37H24.106C24.106 112.725 30.8706 106.552 39.4006 106.552V108.756C32.3443 108.756 26.3114 113.977 26.3114 120.37H28.5168C28.5168 115.154 33.2961 110.96 39.4006 110.96C45.5052 110.96 50.2128 115.154 50.2128 120.37L50.1942 121.034Z" fill="#DD04D2"/>
<path d="M85.987 104.348C96.8708 104.348 105.698 116.473 105.698 131.395C105.698 146.317 96.8708 158.371 85.987 158.371C75.1032 158.371 66.3532 146.317 66.3532 131.395C66.3532 116.473 75.0981 104.348 85.987 104.348ZM85.987 156.161C95.6939 156.161 103.492 145.136 103.492 131.395C103.492 117.654 95.6939 106.552 85.987 106.552C76.2801 106.552 68.5586 117.649 68.5586 131.395C68.5586 145.141 76.2801 156.161 85.987 156.161ZM85.987 108.756C94.4454 108.756 101.282 118.897 101.282 131.395C101.282 143.893 94.4403 153.957 85.987 153.957C77.5338 153.957 70.764 143.888 70.764 131.395C70.764 118.902 77.5286 108.756 85.987 108.756ZM85.987 151.753C93.1917 151.753 99.0763 142.64 99.0763 131.395C99.0763 120.15 93.1917 110.96 85.987 110.96C78.7823 110.96 72.9694 120.145 72.9694 131.395C72.9694 142.645 78.7772 151.753 85.987 151.753ZM85.987 113.169C92.0199 113.169 96.8708 121.326 96.8708 131.395C96.8708 141.464 92.0148 149.549 85.987 149.549C79.9592 149.549 75.1748 141.464 75.1748 131.395C75.1748 121.326 79.9541 113.169 85.987 113.169ZM85.9103 147.345C90.6895 147.345 94.5887 140.216 94.5887 131.395C94.5887 122.574 90.6895 115.373 85.9103 115.373C81.131 115.373 77.3035 122.574 77.3035 131.395C77.3035 140.216 81.1259 147.345 85.9103 147.345Z" fill="white"/>
<path d="M62.3379 131.395C62.3379 123.183 64.7384 115.575 68.8353 109.92C72.9309 104.267 78.939 100.333 85.9866 100.333L85.987 104.348C75.0981 104.348 66.3532 116.473 66.3532 131.395C66.3532 146.317 75.1032 158.371 85.987 158.371C96.8708 158.371 105.698 146.317 105.698 131.395C105.698 116.473 96.8708 104.348 85.987 104.348L85.9866 100.333C93.0278 100.333 99.0539 104.262 103.169 109.911C107.288 115.564 109.712 123.175 109.712 131.395C109.712 139.616 107.287 147.212 103.165 152.849C99.0451 158.484 93.0185 162.385 85.9866 162.385C78.9506 162.385 72.9426 158.479 68.8418 152.84C64.7407 147.201 62.3379 139.608 62.3379 131.395ZM68.5586 131.395C68.5586 117.649 76.2801 106.552 85.987 106.552V108.756C77.5286 108.756 70.764 118.902 70.764 131.395L70.7841 132.558C71.189 144.507 77.798 153.957 85.987 153.957C94.1761 153.957 100.853 144.513 101.262 132.56L101.282 131.395C101.282 119.092 94.6575 109.074 86.3826 108.763L85.987 108.756V106.552C95.6939 106.552 103.492 117.654 103.492 131.395C103.492 145.136 95.6939 156.161 85.987 156.161C76.2801 156.161 68.5586 145.141 68.5586 131.395ZM96.8708 131.395C96.8708 121.326 92.0199 113.169 85.987 113.169C79.9541 113.169 75.1748 121.326 75.1748 131.395C75.1748 141.464 79.9592 149.549 85.987 149.549C92.0148 149.549 96.8708 141.464 96.8708 131.395ZM90.573 131.395C90.573 127.524 89.7086 124.2 88.5105 121.988C87.2241 119.613 86.1214 119.389 85.9107 119.388C85.7134 119.388 84.6261 119.596 83.3541 121.971C82.1698 124.183 81.319 127.511 81.319 131.395C81.319 135.279 82.1686 138.585 83.3476 140.774C84.6087 143.116 85.6923 143.33 85.9107 143.33C86.139 143.329 87.2386 143.1 88.5157 140.756C89.7089 138.567 90.573 135.266 90.573 131.395ZM94.5887 131.395C94.5887 140.216 90.6895 147.345 85.9103 147.345C81.2754 147.345 77.543 140.655 77.3142 132.217L77.3035 131.395C77.3035 122.574 81.131 115.373 85.9103 115.373C90.6895 115.373 94.5887 122.574 94.5887 131.395ZM99.0598 132.443C98.7077 143.201 92.9665 151.753 85.987 151.753C79.0027 151.753 73.334 143.206 72.9865 132.443L72.9694 131.395C72.9694 120.145 78.7823 110.96 85.987 110.96L86.3238 110.967C93.3742 111.248 99.0762 120.325 99.0763 131.395L99.0598 132.443Z" fill="#DD04D2"/>
<path d="M138.614 123.09C139.642 121.986 139.571 121.178 139.571 120.37C139.571 117.578 136.848 115.373 133.174 115.373C129.5 115.373 126.701 117.578 126.701 120.37H124.496C124.496 116.401 128.543 113.169 133.174 113.169C137.805 113.169 141.781 116.401 141.781 120.37C141.781 121.766 141.484 123.162 140.533 124.118C132.663 132.275 117 143.597 117 157.266H114.794C114.794 142.932 129.209 132.863 138.624 123.09H138.614ZM146.335 127.427C148.029 125.663 148.392 122.942 148.392 120.37C148.392 112.725 141.699 106.552 133.169 106.552C124.639 106.552 117.875 112.725 117.875 120.37H115.669C115.669 111.548 123.687 104.348 133.174 104.348C142.661 104.348 150.603 111.548 150.603 120.37C150.603 123.31 150.163 126.399 148.249 128.383C143.393 133.456 135.38 139.7 130.38 146.241H151.191V148.445H128.835C128.395 149.181 127.95 149.917 127.587 150.649H151.191V152.853H126.63C126.338 153.589 126.19 154.32 126.041 155.057H151.191V157.261H123.611C123.611 145.647 137.954 136.243 146.335 127.422V127.427ZM142.436 125.223C143.613 123.975 143.981 122.134 143.981 120.37C143.981 115.154 139.274 110.96 133.169 110.96C127.065 110.96 122.285 115.148 122.285 120.37H120.08C120.08 113.977 126.113 108.756 133.169 108.756C140.226 108.756 146.187 113.972 146.187 120.37C146.187 122.502 145.818 124.778 144.35 126.322C136.7 134.336 121.405 144.916 121.405 157.266H119.2C119.2 144.405 133.543 134.556 142.441 125.223H142.436Z" fill="white"/>
<path d="M150.603 120.37C150.603 111.548 142.661 104.348 133.174 104.348C123.687 104.348 115.669 111.548 115.669 120.37H117.875C117.875 112.725 124.639 106.552 133.169 106.552C141.699 106.552 148.392 112.725 148.392 120.37C148.392 122.942 148.029 125.663 146.335 127.427V127.422C137.954 136.243 123.611 145.647 123.611 157.261H151.191V155.057H126.041C126.19 154.32 126.338 153.589 126.63 152.853H151.191V150.649H127.587C127.95 149.917 128.395 149.181 128.835 148.445H151.191V146.241H130.38C135.38 139.7 143.393 133.456 148.249 128.383C150.043 126.523 150.542 123.692 150.597 120.923L150.603 120.37ZM133.174 113.169C128.543 113.169 124.496 116.401 124.496 120.37H126.701C126.701 117.578 129.5 115.373 133.174 115.373C136.848 115.373 139.571 117.578 139.571 120.37C139.571 121.178 139.642 121.986 138.614 123.09H138.624C129.209 132.863 114.794 142.932 114.794 157.266H117C117 143.597 132.663 132.275 140.533 124.118C141.484 123.162 141.781 121.766 141.781 120.37C141.781 116.401 137.805 113.169 133.174 113.169ZM133.169 108.756C126.113 108.756 120.08 113.977 120.08 120.37H122.285C122.285 115.148 127.065 110.96 133.169 110.96C139.274 110.96 143.981 115.154 143.981 120.37C143.981 122.134 143.613 123.975 142.436 125.223H142.441C133.543 134.556 119.2 144.405 119.2 157.266H121.405C121.405 144.916 136.7 134.336 144.35 126.322C145.818 124.778 146.187 122.502 146.187 120.37C146.187 114.172 140.592 109.083 133.828 108.771L133.169 108.756ZM154.618 120.37C154.618 123.423 154.229 127.955 151.149 131.159C148.615 133.806 145.207 136.812 142.105 139.7C141.202 140.541 140.314 141.384 139.452 142.225H155.206V161.276H125.421V161.281H110.779V157.266C110.779 148.674 115.116 141.654 120.14 135.842C122.668 132.918 125.474 130.181 128.163 127.627C130.807 125.114 133.285 122.822 135.499 120.543L135.556 120.481C135.555 120.447 135.556 120.409 135.556 120.37C135.556 120.34 135.551 120.313 135.528 120.268C135.501 120.216 135.428 120.107 135.261 119.975C134.919 119.705 134.228 119.388 133.174 119.388C132.117 119.388 131.393 119.708 131.023 119.996C130.843 120.136 130.767 120.25 130.739 120.302C130.716 120.345 130.717 120.36 130.717 120.37V124.385H111.653V120.37C111.653 108.983 121.835 100.333 133.174 100.333C144.537 100.333 154.618 109.004 154.618 120.37Z" fill="#DD04D2"/>
<path d="M189.492 105.452H192.215L181.479 123.166C191.186 123.974 198.984 131.543 198.984 140.732C198.984 150.433 190.234 158.37 179.862 158.37C169.49 158.37 160.74 150.433 160.74 140.732C160.74 137.28 161.989 134.263 163.682 131.399L178.834 105.457H181.556L165.596 132.432C164.127 135.005 162.951 137.649 162.951 140.737C162.951 149.262 170.452 156.171 179.867 156.171C189.283 156.171 196.784 149.262 196.784 140.737C196.784 132.213 189.283 125.524 180.236 125.304L178.91 127.508H179.867C187.886 127.508 194.574 133.46 194.574 140.737C194.574 148.014 187.809 153.967 179.867 153.967C171.926 153.967 165.156 148.014 165.156 140.737C165.156 138.165 166.113 135.884 167.361 133.757L184.196 105.452H186.919L169.122 134.775C167.796 136.907 167.356 138.82 167.356 140.727C167.356 146.828 172.872 151.753 179.857 151.753C186.842 151.753 192.358 146.828 192.358 140.727C192.358 134.626 186.622 129.702 179.857 129.702C179.049 129.702 178.24 129.773 177.432 129.922L175.815 132.565C177.063 132.126 178.389 131.906 179.862 131.906C185.45 131.906 190.158 135.874 190.158 140.727C190.158 145.58 185.378 149.548 179.862 149.548C174.346 149.548 169.567 145.58 169.567 140.727C169.567 138.963 170.304 137.418 171.184 135.951L189.492 105.452ZM173.164 136.979C172.284 138.007 171.767 139.403 171.767 140.727C171.767 144.404 175.298 147.344 179.857 147.344C184.416 147.344 187.947 144.404 187.947 140.727C187.947 137.05 184.196 134.115 179.857 134.115C177.283 134.115 174.929 134.851 173.164 136.984V136.979Z" fill="white"/>
<path d="M199.343 101.437L187.822 120.446C196.475 123.473 203 131.237 203 140.732C203 152.969 192.12 162.385 179.862 162.385C167.605 162.385 156.725 152.969 156.725 140.732C156.725 136.264 158.355 132.52 160.226 129.355L176.529 101.442H181.911L181.913 101.437H199.343ZM184.196 105.452L167.361 133.757C166.113 135.884 165.156 138.165 165.156 140.737C165.156 148.014 171.926 153.967 179.867 153.967C187.809 153.967 194.574 148.014 194.574 140.737C194.574 133.46 187.886 127.508 179.867 127.508H178.91L180.236 125.304C189.283 125.524 196.784 132.213 196.784 140.737C196.784 149.262 189.283 156.171 179.867 156.171C170.452 156.171 162.951 149.262 162.951 140.737C162.951 137.649 164.127 135.005 165.596 132.432L181.556 105.457H178.834L163.682 131.399C161.989 134.263 160.74 137.28 160.74 140.732C160.74 150.433 169.49 158.37 179.862 158.37C190.234 158.37 198.984 150.433 198.984 140.732C198.984 131.543 191.186 123.974 181.479 123.166L192.215 105.452H189.492L171.184 135.951C170.304 137.418 169.567 138.963 169.567 140.727C169.567 145.58 174.346 149.548 179.862 149.548C185.206 149.548 189.858 145.824 190.144 141.179L190.158 140.727C190.158 135.874 185.45 131.906 179.862 131.906C178.389 131.906 177.063 132.126 175.815 132.565L177.432 129.922C178.24 129.773 179.049 129.702 179.857 129.702C186.622 129.702 192.358 134.626 192.358 140.727C192.358 146.828 186.842 151.753 179.857 151.753C172.872 151.753 167.356 146.828 167.356 140.727C167.356 138.82 167.796 136.907 169.122 134.775L186.919 105.452H184.196ZM183.931 140.727C183.931 140.335 183.74 139.757 183.008 139.168C182.27 138.572 181.146 138.13 179.857 138.13C178.099 138.13 177.047 138.591 176.257 139.544L176.154 139.668C175.925 139.975 175.783 140.4 175.783 140.727C175.783 141.202 175.995 141.772 176.654 142.314C177.327 142.867 178.427 143.329 179.857 143.329C181.287 143.329 182.387 142.867 183.061 142.314C183.719 141.772 183.931 141.202 183.931 140.727ZM187.947 140.727C187.947 144.404 184.416 147.344 179.857 147.344C175.298 147.344 171.767 144.404 171.767 140.727C171.767 139.403 172.284 138.007 173.164 136.979V136.984C174.929 134.851 177.283 134.115 179.857 134.115C184.196 134.115 187.947 137.05 187.947 140.727Z" fill="#DD04D2"/>
<path d="M30.4434 41.5748H28.1095V84.7718H25.7756V41.5748H23.4416V84.7718H21.1022V39.2409H45.0753C49.2775 39.2409 52.6999 42.6633 52.6999 46.8655C52.6999 51.0677 49.2775 54.4142 45.0753 54.4142H32.7774V56.7482H45.0753C50.5988 56.7482 55.0392 52.389 55.0392 46.8655C55.0392 41.342 50.6042 36.9015 45.0753 36.9015H21.1022V34.5676H45.0753C51.8443 34.5676 57.3732 40.0911 57.3732 46.8655C57.3732 53.6399 51.8497 59.0821 45.0753 59.0821H32.7774V61.4161H45.0753C53.171 61.4161 59.7071 54.9558 59.7071 46.8601C59.7071 38.7644 53.1656 32.239 45.0753 32.239H21.1022V29.9051H45.0753C54.4165 29.9051 62.0411 37.5297 62.0411 46.8709C62.0411 56.2121 54.4165 63.7609 45.0753 63.7609H32.7774V84.7718H30.4434V41.5748ZM32.7774 41.5748V52.0803H45.0753C48.032 52.0803 50.3659 49.8222 50.3659 46.8655C50.3659 43.9088 48.032 41.5748 45.0753 41.5748H32.7774Z" fill="white"/>
<path d="M52.6999 46.8655C52.6999 42.6633 49.2775 39.2409 45.0753 39.2409H21.1022V84.7718H23.4416V41.5748H25.7756V84.7718H28.1095V41.5748H30.4434V84.7718H32.7774V63.7609H45.0753C54.4165 63.7609 62.0411 56.2121 62.0411 46.8709C62.041 37.6027 54.5351 30.0244 45.2938 29.9066L45.0753 29.9051L45.0753 26.81C56.1258 26.8101 65.136 35.8203 65.136 46.8708C65.136 57.9393 56.1078 66.8559 45.0753 66.8559H35.8724V87.867H18.0072V26.81H45.0753L45.0753 29.9051H21.1022V32.239H45.0753C53.1656 32.239 59.7071 38.7644 59.7071 46.8601C59.7071 54.9558 53.171 61.4161 45.0753 61.4161H32.7774V59.0821H45.0753C51.8497 59.0821 57.3732 53.6399 57.3732 46.8655C57.3731 40.197 52.0157 34.7405 45.3918 34.5716L45.0753 34.5676H21.1022V36.9015H45.0753C50.6042 36.9015 55.0392 41.342 55.0392 46.8655L55.036 47.1235C54.9003 52.5241 50.5125 56.7482 45.0753 56.7482H32.7774V54.4142H45.0753C49.2118 54.4142 52.5929 51.1714 52.6975 47.0618L52.6999 46.8655ZM47.2709 46.8653C47.2708 45.6181 46.3226 44.6698 45.0753 44.6698H35.8724V48.9853H45.0753C46.3815 48.9853 47.2709 48.0544 47.2709 46.8653ZM50.3641 47.0035C50.2928 49.8921 47.9858 52.0803 45.0753 52.0803H32.7774V41.5748H45.0753C48.032 41.5748 50.3659 43.9088 50.3659 46.8655L50.3641 47.0035Z" fill="#DD04D2"/>
<path d="M65.136 46.8708C65.136 35.993 56.4052 27.0925 45.5918 26.8169L45.0753 26.81L45.0754 25.8029C56.6821 25.8029 66.1428 35.2645 66.1428 46.8712C66.1426 58.5019 56.6578 67.8628 45.0754 67.8629H36.8792V88.8742H17V25.8029H45.0754L45.0753 26.81H18.0072V87.867H35.8724V66.8559H45.0753L45.5908 66.8498C56.2164 66.5815 64.8583 58.0438 65.1297 47.3876L65.136 46.8708ZM46.2636 46.8653C46.2635 46.1743 45.7663 45.6772 45.0754 45.6772H36.8792V47.9778H45.0754L45.0753 48.9853H35.8724V44.6698H45.0753C46.3226 44.6698 47.2708 45.6181 47.2709 46.8653C47.2709 48.0544 46.3815 48.9853 45.0753 48.9853L45.0754 47.9778C45.8359 47.9777 46.2636 47.4876 46.2636 46.8653ZM52.6975 47.0618C52.6968 47.0881 52.6942 47.1145 52.6933 47.1407C52.6966 47.0494 52.6999 46.9577 52.6999 46.8655L52.6975 47.0618ZM61.9065 44.7319C61.9751 45.2727 62.0174 45.8214 62.0334 46.3765C62.0214 45.9609 61.9944 45.5489 61.9528 45.1411L61.9065 44.7319ZM61.701 43.4857C61.7506 43.729 61.7927 43.9746 61.8318 44.2215C61.7914 43.9659 61.7468 43.7119 61.6951 43.4602L61.701 43.4857ZM45.2938 29.9066C45.3293 29.9071 45.3647 29.9077 45.4 29.9083C45.2921 29.9063 45.1837 29.9051 45.0753 29.9051L45.2938 29.9066Z" fill="#DD04D2"/>
<path d="M87.2543 64.4594L66.2379 29.9051H68.8859L89.5882 63.9179V84.7772H87.2543V64.4594ZM91.9222 63.2139L71.6856 29.9051H74.4852L94.2507 62.5154V84.7718H91.9167V63.2139H91.9222ZM97.9114 59.7103L116.128 29.9051H118.776L98.9294 62.5154V84.7718H96.5955V61.7356L77.2903 29.9051H79.8571L92.4637 50.7644L105.151 29.9051H107.718L93.785 52.8655L95.1875 55.1994L110.523 29.9051H113.323L96.6352 57.5194L97.9114 59.7103Z" fill="white"/>
<path d="M81.6029 26.81L92.4721 44.7946L103.412 26.81H124.283L102.024 63.3828V87.8669H92.6834V87.8724H84.1593V65.3265L60.733 26.81H81.6029ZM77.2903 29.9051L96.5955 61.7356V84.7718H98.9294V62.5154L118.776 29.9051H116.128L97.9114 59.7103L96.5915 57.4547L113.323 29.9051H110.523L95.1875 55.1994L93.785 52.8655L107.718 29.9051H105.151L92.4637 50.7644L79.8571 29.9051H77.2903ZM71.6856 29.9051L91.9222 63.2139H91.9167V84.7718H94.2507V62.5154L74.4852 29.9051H71.6856ZM89.5882 84.7772V63.9179L68.8859 29.9051H66.2379L87.2543 64.4594V84.7772H89.5882Z" fill="#DD04D2"/>
<path d="M102.024 87.8669V63.3828L124.283 26.81H103.412L92.4721 44.7946L81.6029 26.81H60.733L84.1593 65.3265V87.8724H92.6834V87.8669H102.024ZM103.032 88.8742H93.691V88.8791H83.1519V65.6085L58.9419 25.8029H82.1712L92.4743 42.8513L102.845 25.8029H126.074L103.032 63.663V88.8742Z" fill="#DD04D2"/>
<path d="M168.92 76.9088C163.706 82.4323 156.314 85.9359 148.061 85.9359C132.26 85.9359 119.496 73.1723 119.496 57.3708C119.496 41.5693 132.265 28.7353 148.067 28.7353C155.458 28.7353 162.388 31.7261 167.527 36.3182L165.503 37.6054C160.836 33.479 154.765 31.0692 148.072 31.0692C133.516 31.0692 121.846 42.8202 121.846 57.3762C121.846 71.9323 133.521 83.602 148.072 83.602C155.621 83.602 162.39 80.4883 167.22 75.4305L168.931 76.9088H168.92ZM165.108 74.185C160.749 78.5442 154.76 81.268 148.067 81.268C134.837 81.268 124.175 70.6055 124.175 57.3762C124.175 44.1469 134.837 33.4032 148.067 33.4032C153.98 33.4032 159.428 35.5801 163.63 39.1595L161.686 40.6379C157.949 37.6 153.2 35.7371 148.067 35.7371C136.159 35.7371 126.509 45.4628 126.509 57.3762C126.509 69.2896 136.159 78.9341 148.067 78.9341C153.904 78.9341 159.306 76.5763 163.194 72.8398L165.108 74.185ZM161.182 71.4471C157.76 74.6366 153.206 76.6002 148.067 76.6002C137.404 76.6002 128.843 68.0387 128.843 57.3762C128.843 46.7137 137.404 38.0765 148.067 38.0765C152.502 38.0765 156.628 39.5548 159.899 42.0458L157.955 43.6C155.155 41.5747 151.727 40.4104 147.991 40.4104C138.65 40.4104 131.101 48.035 131.101 57.3762C131.101 66.7174 138.65 74.2662 147.991 74.2662C152.269 74.2662 156.238 72.7066 159.2 70.064L161.182 71.4471Z" fill="white"/>
<path d="M126.509 57.3762C126.509 45.4628 136.159 35.7371 148.067 35.7371L148.307 35.7385C153.348 35.7956 158.008 37.6474 161.686 40.6379L163.63 39.1595C159.428 35.5801 153.98 33.4032 148.067 33.4032C134.837 33.4032 124.175 44.1469 124.175 57.3762L124.177 57.6859C124.342 70.7715 134.941 81.268 148.067 81.268C154.76 81.268 160.749 78.5442 165.108 74.185L163.194 72.8398C159.306 76.5763 153.904 78.9341 148.067 78.9341C136.252 78.9341 126.66 69.4398 126.51 57.655L126.509 57.3762ZM148.067 28.7353C132.265 28.7353 119.496 41.5693 119.496 57.3708C119.496 73.1723 132.26 85.9359 148.061 85.9359C156.314 85.9359 163.706 82.4323 168.92 76.9088H168.931L167.22 75.4305C162.39 80.4883 155.621 83.602 148.072 83.602C133.521 83.602 121.846 71.9323 121.846 57.3762C121.846 42.8202 133.516 31.0692 148.072 31.0692C154.765 31.0692 160.836 33.479 165.503 37.6054L167.527 36.3182C162.388 31.7261 155.458 28.7353 148.067 28.7353ZM128.844 57.6257C128.976 68.172 137.487 76.6002 148.067 76.6002C153.206 76.6002 157.76 74.6366 161.182 71.4471L159.2 70.064C156.238 72.7066 152.269 74.2662 147.991 74.2662C138.723 74.2662 131.219 66.8349 131.102 57.5949L131.101 57.3762C131.101 48.035 138.65 40.4104 147.991 40.4104C151.727 40.4104 155.155 41.5747 157.955 43.6L159.899 42.0458C156.628 39.5548 152.502 38.0765 148.067 38.0765C137.404 38.0765 128.843 46.7137 128.843 57.3762L128.844 57.6257ZM134.196 57.3764C134.196 65.0081 140.359 71.1711 147.991 71.1711C151.515 71.1711 154.749 69.8869 157.14 67.7545L158.965 66.1259L172.789 77.3277L170.214 80.0038C164.515 85.5505 156.717 89.0308 148.061 89.0308C130.55 89.0308 116.401 74.8817 116.401 57.3709C116.401 39.8692 130.547 25.6402 148.067 25.6402C156.29 25.6403 163.938 28.9607 169.589 34.0102L172.324 36.4729L168.314 39.4858L163.057 43.4828L158.048 47.4876L156.141 46.1078C153.865 44.4613 151.071 43.5054 147.991 43.5054C140.377 43.5054 134.196 49.7264 134.196 57.3764Z" fill="#DD04D2"/>
<path d="M115.394 57.3707C115.394 39.316 129.987 24.6331 148.066 24.6331L148.861 24.6429C157.052 24.8489 164.624 28.2234 170.26 33.2591L170.263 33.262L173.908 36.5433L168.922 40.2868L168.923 40.2878L163.686 44.2684L163.687 44.2693L158.078 48.7525L155.551 46.924C153.445 45.4008 150.857 44.5123 147.991 44.5123C140.939 44.5123 135.203 50.2774 135.203 57.3766C135.203 64.452 140.915 70.1642 147.991 70.1642L147.991 71.1711L147.634 71.1664C140.286 70.9808 134.385 65.0804 134.2 57.7326L134.196 57.3764C134.196 49.7264 140.377 43.5054 147.991 43.5054C151.071 43.5054 153.865 44.4613 156.141 46.1078L158.048 47.4876L163.057 43.4828L168.314 39.4858L172.324 36.4729L169.589 34.0102C163.938 28.9607 156.29 25.6403 148.067 25.6402C130.547 25.6402 116.401 39.8692 116.401 57.3709C116.401 74.6083 130.112 88.588 147.243 89.0205L148.061 89.0308C156.447 89.0307 164.027 85.7643 169.674 80.5174L170.214 80.0038L172.789 77.3277L158.965 66.1259L157.14 67.7545L156.682 68.1439C154.344 70.0421 151.295 71.1711 147.991 71.1711L147.991 70.1642C151.27 70.1642 154.265 68.9694 156.469 67.0029L158.934 64.8046L174.275 77.2352L170.941 80.7023L170.917 80.7259C165.04 86.4456 156.994 90.0384 148.062 90.0385C130.277 90.0385 115.851 75.8909 115.405 58.2156L115.394 57.3707ZM139.873 79.8338C140.228 79.9627 140.587 80.0843 140.949 80.1967L140.447 80.0354C140.254 79.9711 140.063 79.9029 139.873 79.8338ZM147.558 74.2608L147.991 74.2662L147.554 74.2608C147.53 74.2602 147.506 74.2586 147.482 74.2578C147.507 74.2586 147.533 74.2602 147.558 74.2608ZM146.275 74.1801C146.49 74.2017 146.705 74.2178 146.922 74.2313C146.7 74.2175 146.48 74.2013 146.262 74.1792L146.275 74.1801ZM134.457 70.9864C134.547 71.0771 134.64 71.1661 134.732 71.255C134.667 71.1926 134.601 71.1313 134.537 71.0681L134.457 70.9864ZM136.404 69.6743C136.484 69.7493 136.564 69.8232 136.645 69.8966C136.64 69.892 136.635 69.8876 136.629 69.8829L136.404 69.6743ZM124.18 57.8536C124.179 57.7977 124.177 57.7418 124.177 57.6859L124.175 57.3762C124.175 57.5356 124.177 57.695 124.18 57.8536ZM128.847 57.7326C128.847 57.697 128.844 57.6614 128.844 57.6257L128.843 57.3762C128.843 57.4952 128.845 57.6142 128.847 57.7326Z" fill="#DD04D2"/>
<path d="M202.644 28.1025C218.445 28.1025 231.285 40.9419 231.285 56.7434C231.285 72.5449 218.445 85.3085 202.644 85.3085C186.842 85.3085 174.079 72.5449 174.079 56.7434C174.079 40.9419 186.842 28.1025 202.644 28.1025ZM202.644 82.9692C217.2 82.9692 228.951 71.294 228.951 56.7434C228.951 42.1928 217.2 30.4364 202.644 30.4364C188.088 30.4364 176.418 42.1874 176.418 56.7434C176.418 71.2994 188.093 82.9692 202.644 82.9692ZM202.644 32.7704C215.873 32.7704 226.617 43.5087 226.617 56.7434C226.617 69.9781 215.878 80.6352 202.644 80.6352C189.409 80.6352 178.752 69.9727 178.752 56.7434C178.752 43.5141 189.414 32.7704 202.644 32.7704ZM202.644 78.3013C214.552 78.3013 224.283 68.6514 224.283 56.7434C224.283 44.8354 214.552 35.1043 202.644 35.1043C190.736 35.1043 181.086 44.83 181.086 56.7434C181.086 68.6568 190.736 78.3013 202.644 78.3013ZM202.644 37.4437C213.306 37.4437 221.943 46.0809 221.943 56.7434C221.943 67.4059 213.306 75.9673 202.644 75.9673C191.981 75.9673 183.42 67.4059 183.42 56.7434C183.42 46.0809 191.981 37.4437 202.644 37.4437ZM202.568 73.6334C211.909 73.6334 219.534 66.0846 219.534 56.7434C219.534 47.4022 211.909 39.7776 202.568 39.7776C193.227 39.7776 185.678 47.4022 185.678 56.7434C185.678 66.0846 193.227 73.6334 202.568 73.6334Z" fill="white"/>
<path d="M170.983 56.7435C170.983 39.2434 185.122 25.0074 202.644 25.0074L202.644 28.1025C186.842 28.1025 174.079 40.9419 174.079 56.7434L174.081 57.1132C174.278 72.7436 186.966 85.3085 202.644 85.3085C218.322 85.3085 231.084 72.7436 231.282 57.1132L231.285 56.7434C231.285 41.0653 218.645 28.3033 203.013 28.1049L202.644 28.1025L202.644 25.0074C220.155 25.0075 234.379 39.2327 234.379 56.7435C234.379 74.265 220.144 88.4034 202.644 88.4035C185.133 88.4035 170.984 74.2543 170.983 56.7435ZM176.418 56.7434C176.418 42.1874 188.088 30.4364 202.644 30.4364V32.7704C189.414 32.7704 178.752 43.5141 178.752 56.7434L178.754 57.053C178.918 70.1387 189.512 80.6352 202.644 80.6352C215.775 80.6352 226.449 70.1439 226.615 57.053L226.617 56.7434C226.617 43.6121 216.04 32.9382 202.953 32.7723L202.644 32.7704V30.4364L202.984 30.4386C217.383 30.6203 228.951 42.3065 228.951 56.7434L228.948 57.0839C228.767 71.4757 217.086 82.9691 202.644 82.9692C188.207 82.9692 176.601 71.4811 176.42 57.0842L176.418 56.7434ZM221.943 56.7434C221.943 46.0809 213.306 37.4437 202.644 37.4437C191.981 37.4437 183.42 46.0809 183.42 56.7434L183.421 56.9929C183.554 67.5391 192.064 75.9673 202.644 75.9673C213.223 75.9673 221.808 67.5391 221.942 56.9929L221.943 56.7434ZM216.438 56.7435C216.438 49.1117 210.2 42.8726 202.568 42.8726C194.954 42.8726 188.773 49.0936 188.773 56.7435C188.773 64.3753 194.936 70.5383 202.568 70.5383C210.218 70.5383 216.438 64.3573 216.438 56.7435ZM219.532 56.9621C219.414 66.2021 211.836 73.6334 202.568 73.6334C193.3 73.6334 185.796 66.2021 185.679 56.9621L185.678 56.7434C185.678 47.4022 193.227 39.7776 202.568 39.7776C211.909 39.7776 219.534 47.4022 219.534 56.7434L219.532 56.9621ZM224.281 57.0222C224.131 68.8016 214.459 78.3012 202.644 78.3013C190.829 78.3013 181.237 68.8069 181.087 57.0222L181.086 56.7434C181.086 44.83 190.736 35.1043 202.644 35.1043L202.922 35.106C214.703 35.2564 224.283 44.9285 224.283 56.7434L224.281 57.0222Z" fill="#DD04D2"/>
<path d="M234.379 56.7435C234.379 39.2327 220.155 25.0075 202.644 25.0074C185.122 25.0074 170.983 39.2434 170.983 56.7435L170.993 57.5621C171.419 74.4214 184.966 87.9679 201.826 88.3936L202.644 88.4035C219.87 88.4032 233.934 74.7031 234.37 57.5621L234.379 56.7435ZM200.633 82.8943C200.924 82.9161 201.217 82.9312 201.511 82.9435C201.212 82.931 200.913 82.9157 200.617 82.8933L200.633 82.8943ZM197.818 80.1511C197.974 80.183 198.131 80.2118 198.289 80.2406C198.143 80.2141 197.998 80.1881 197.854 80.159L197.818 80.1511ZM201.128 78.2469C201.629 78.2816 202.134 78.3013 202.644 78.3013L202.087 78.2941C201.766 78.286 201.446 78.2689 201.128 78.2469ZM205.561 75.7506C205.099 75.82 204.632 75.8726 204.16 75.9089C204.64 75.872 205.115 75.8177 205.584 75.7466L205.561 75.7506ZM200.852 73.5473C201.067 73.5689 201.282 73.585 201.499 73.5985C201.278 73.5847 201.058 73.5685 200.839 73.5463L200.852 73.5473ZM215.432 56.7438C215.432 49.6682 209.643 43.8795 202.567 43.8795C195.515 43.8797 189.78 49.6448 189.78 56.7438C189.78 63.819 195.492 69.5311 202.567 69.5314L202.568 70.5383L202.211 70.5336C194.863 70.3482 188.963 64.4477 188.777 57.0998L188.773 56.7435C188.773 49.0936 194.954 42.8726 202.568 42.8726C210.2 42.8726 216.438 49.1117 216.438 56.7435L216.434 57.0998C216.243 64.5492 210.098 70.5383 202.568 70.5383L202.567 69.5314C209.666 69.5313 215.431 63.7957 215.432 56.7438ZM174.085 57.2946C174.084 57.2343 174.082 57.1736 174.081 57.1132L174.079 56.7434C174.079 56.9274 174.081 57.1114 174.085 57.2946ZM231.282 57.1132C231.282 57.1736 231.278 57.2343 231.277 57.2946C231.281 57.1114 231.285 56.9274 231.285 56.7434L231.282 57.1132ZM178.757 57.2041C178.756 57.1538 178.754 57.1034 178.754 57.053L178.752 56.7434C178.752 56.8972 178.754 57.051 178.757 57.2041ZM226.615 57.053C226.614 57.1034 226.612 57.1538 226.611 57.2041C226.614 57.051 226.617 56.8972 226.617 56.7434L226.615 57.053ZM221.942 56.9929C221.941 57.0286 221.94 57.0642 221.939 57.0998C221.941 56.9814 221.943 56.8624 221.943 56.7434L221.942 56.9929ZM228.874 54.7166C228.907 55.1433 228.928 55.5729 228.94 56.0051C228.928 55.5782 228.907 55.1539 228.875 54.7323L228.874 54.7166ZM231.202 54.5592C231.206 54.6116 231.209 54.6641 231.212 54.7166C231.208 54.6582 231.205 54.5998 231.2 54.5415L231.202 54.5592ZM226.012 51.3714C226.078 51.6611 226.137 51.9533 226.193 52.2468C226.135 51.9396 226.072 51.6341 226.002 51.3311L226.012 51.3714ZM202.953 32.7723C203.009 32.773 203.065 32.7747 203.121 32.7758C202.962 32.7727 202.803 32.7704 202.644 32.7704L202.953 32.7723ZM203.013 28.1049C203.074 28.1057 203.134 28.1075 203.194 28.1087C203.011 28.1052 202.827 28.1025 202.644 28.1025L203.013 28.1049ZM235.387 56.7438C235.386 74.8248 220.697 89.4103 202.644 89.4106C184.859 89.4106 170.434 75.2632 169.987 57.5877L169.976 56.7438C169.976 38.6909 184.563 24.0002 202.644 24.0002L203.488 24.0111C221.166 24.4598 235.387 38.9589 235.387 56.7438Z" fill="#DD04D2"/>
<path d="M241.583 29.2718H243.917V84.1385H241.583V29.2718ZM246.251 29.2718H248.585V84.1385H246.251V29.2718ZM253.253 41.9542V84.1385H250.919V29.2718H253.8L281.17 79.3252L281.271 79.3136V74.7973L256.681 29.2718H259.248L281.271 69.9778V29.2718H283.605V84.1385H281.271L253.315 34.2922H253.253V37.4433L278.856 84.1385H276.132L253.253 41.9542ZM285.944 29.2718H288.278V84.1385H285.944V29.2718ZM290.612 29.2718H292.946V84.1385H290.612V29.2718Z" fill="white"/>
<path d="M243.917 29.2718H241.583V84.1385H243.917V29.2718ZM246.251 84.1385H248.585V29.2718H246.251V84.1385ZM250.919 84.1385H253.253V41.9542L276.132 84.1385H278.856L253.253 37.4433V34.2922H253.315L281.271 84.1385H283.605V29.2718H281.271V69.9778L259.248 29.2718H256.681L281.271 74.7973V79.3136L281.17 79.3252L253.8 29.2718H250.919V84.1385ZM285.944 84.1385H288.278V29.2718H285.944V84.1385ZM290.612 84.1385H292.946V29.2718H290.612V84.1385ZM296.041 87.2337H274.29L256.348 54.1525V87.2337H238.488V26.1767H261.092L278.176 57.753V26.1767H296.041V87.2337Z" fill="#DD04D2"/>
<path d="M296.041 26.1767H278.176V57.753L261.092 26.1767H238.488V87.2337H256.348V54.1525L274.29 87.2337H296.041V26.1767ZM297.049 88.2409H273.691L257.355 58.1216V88.2409H237.481V25.1696H261.692L277.169 53.7742V25.1696H297.049V88.2409Z" fill="#DD04D2"/>
<path d="M366.763 29.1706H369.052V61.2248C369.052 73.8956 358.824 84.1237 346.153 84.1237C333.482 84.1237 323.259 73.8956 323.259 61.2301V29.1706H325.548V61.2248C325.548 72.5999 334.783 81.8295 346.153 81.8295C357.523 81.8295 366.763 72.5946 366.763 61.2248V29.1706ZM327.837 29.1706H330.126V61.2248C330.126 70.0774 337.3 77.2519 346.153 77.2519C355.006 77.2519 362.18 70.0774 362.18 61.2248V29.1706H364.469V61.2248C364.469 71.2988 356.227 79.5407 346.153 79.5407C336.079 79.5407 327.837 71.3041 327.837 61.2301V29.1706ZM357.602 29.1706H359.891V61.2248C359.891 68.7816 353.71 74.9631 346.153 74.9631C338.596 74.9631 332.415 68.7816 332.415 61.2248V29.1706H334.704V61.2248C334.704 67.5602 339.818 72.6742 346.153 72.6742C352.488 72.6742 357.602 67.5602 357.602 61.2248V29.1706Z" fill="white"/>
<path d="M334.704 61.2248V29.1706H332.415V61.2248C332.415 68.7816 338.596 74.9631 346.153 74.9631C353.592 74.9631 359.698 68.9733 359.887 61.578L359.891 61.2248V29.1706H357.602V61.2248L357.599 61.5209C357.442 67.7188 352.389 72.6742 346.153 72.6742C339.917 72.6742 334.864 67.7188 334.707 61.5209L334.704 61.2248ZM362.18 61.2248C362.18 70.0774 355.006 77.2519 346.153 77.2519C337.3 77.2519 330.126 70.0774 330.126 61.2248V29.1706H327.837V61.2301C327.837 71.3041 336.079 79.5407 346.153 79.5407C356.148 79.5407 364.34 71.427 364.467 61.4604L364.469 61.2248V29.1706H362.18V61.2248ZM366.763 61.2248L366.761 61.491C366.618 72.7383 357.434 81.8295 346.153 81.8295C334.783 81.8295 325.548 72.5999 325.548 61.2248V29.1706H323.259V61.2301C323.259 73.8956 333.482 84.1237 346.153 84.1237C358.725 84.1237 368.892 74.0548 369.05 61.5212L369.052 61.2248V29.1706H366.763V61.2248ZM372.147 61.2247C372.147 75.6049 360.533 87.2186 346.153 87.2186C331.772 87.2185 320.164 75.6045 320.164 61.2301V26.0755H337.799V61.2247C337.799 65.8507 341.527 69.5791 346.153 69.5792C350.779 69.5792 354.507 65.8507 354.507 61.2247V26.0755H372.147V61.2247Z" fill="#DD04D2"/>
<path d="M337.799 61.2247V26.0755H320.164V61.2301C320.164 75.6045 331.772 87.2185 346.153 87.2186C360.308 87.2186 371.784 75.965 372.139 61.8967L372.147 61.2247V26.0755H354.507V61.2247L354.496 61.6557C354.273 66.0802 350.634 69.5792 346.153 69.5792L346.153 68.5723C350.222 68.5723 353.5 65.2946 353.5 61.2249V25.0684H373.154V61.2249C373.154 76.1613 361.089 88.2253 346.153 88.2253C331.449 88.2251 319.535 76.5348 319.166 61.9282L319.157 61.2298V25.0684H338.806V61.2249C338.806 65.2945 342.083 68.5721 346.153 68.5723L346.153 69.5792L345.722 69.5687C341.44 69.3527 338.026 65.9374 337.81 61.6557L337.799 61.2247ZM359.852 62.2675C359.834 62.502 359.81 62.7348 359.78 62.9659C359.795 62.8525 359.808 62.7387 359.82 62.6246L359.852 62.2675ZM369.05 61.5212C369.049 61.5572 369.047 61.5932 369.047 61.6292C369.049 61.4947 369.052 61.3598 369.052 61.2248L369.05 61.5212ZM364.467 61.4604C364.467 61.4997 364.466 61.5389 364.465 61.578C364.467 61.4606 364.469 61.3427 364.469 61.2248L364.467 61.4604Z" fill="#DD04D2"/>
<path d="M379.634 75.4987C383.144 79.009 388.566 81.7598 394.668 81.7598C403.674 81.7598 411.614 75.9607 411.614 67.3365C411.614 61.6118 408.103 55.8127 402.304 54.0549L392.761 51.5377C389.708 50.773 387.955 47.7195 387.955 44.7456C387.955 40.1679 391.922 37.2684 396.654 37.2684C399.707 37.2684 402.761 38.5642 404.439 40.3963L402.605 41.8755C401.612 40.7284 399.097 39.5572 396.574 39.5572C392.836 39.5572 390.239 41.7717 390.239 44.974C390.239 47.0344 391.535 49.0206 393.521 49.4029L403.138 52.1484C410.005 53.8266 413.897 60.6983 413.897 67.4108C413.897 77.4105 404.965 84.0486 394.891 84.0486C387.716 84.0486 381.307 81.1491 377.796 77.0281L379.628 75.4987H379.634ZM394.593 72.5992C399.097 72.5992 402.379 70.5387 402.379 67.3312C402.379 65.2707 401.083 63.2846 399.097 62.8279L389.554 60.0823C382.687 58.4042 378.795 51.6121 378.795 44.8943C378.795 34.7406 387.265 28.1025 396.654 28.1025C402.761 28.1025 408.103 30.6993 411.306 34.2839L409.548 35.8133C406.42 32.5314 402.071 30.3966 396.649 30.3966C388.407 30.3966 381.078 36.2754 381.078 44.974C381.078 50.773 384.514 56.4977 390.313 58.1759L399.931 60.693C402.984 61.5321 404.662 64.5856 404.662 67.5595C404.662 72.0628 400.233 74.9624 394.817 74.9624C390.689 74.9624 386.975 73.445 384.808 71.2785L386.495 69.5978C387.945 70.8936 391.386 72.5992 394.593 72.5992ZM394.593 77.1768C401.232 77.1768 406.956 73.4382 406.956 67.6339C406.956 63.7413 404.588 59.546 400.695 58.4732L391.158 55.9561C386.198 54.6603 383.372 49.6206 383.372 44.6606C383.372 37.4861 389.554 32.6801 396.574 32.6801C401.232 32.6801 405.353 34.7406 407.641 37.2578L405.963 38.7076C403.977 36.6471 400.621 34.969 396.803 34.969C390.924 34.969 385.736 38.7872 385.736 44.6606C385.736 48.4789 388.024 52.6742 391.997 53.7416L401.534 56.2588C406.574 57.6342 409.245 62.6685 409.245 67.7082C409.245 74.8827 402.453 79.4604 394.668 79.4604C389.246 79.4604 383.924 76.9033 381.327 74.1577L383.151 72.5992C385.594 75.2704 390.011 77.1715 394.593 77.1715V77.1768Z" fill="white"/>
<path d="M396.654 25.0074C403.61 25.0074 409.803 27.9562 413.614 32.2219L415.703 34.5604L402.335 45.516C401.534 44.6737 400.903 44.1178 399.813 43.4889C399.61 43.36 399.334 43.2188 398.991 43.0887C398.297 42.8258 397.446 42.6523 396.574 42.6523C395.304 42.6523 394.474 43.0258 394.015 43.4179C393.593 43.7786 393.334 44.2702 393.334 44.9739C393.334 45.3743 393.465 45.7547 393.654 46.02C395.008 47.9165 401.708 48.5242 403.936 49.1576C412.537 51.2956 416.992 59.7363 416.992 67.4109C416.992 79.625 406.121 87.1437 394.891 87.1437C386.966 87.1437 379.633 83.9573 375.44 79.0352L373.413 76.6556L386.826 65.8443L388.557 67.29C388.952 67.6426 389.845 68.2255 391.054 68.7187C392.246 69.2048 393.503 69.504 394.593 69.504C396.418 69.504 397.587 69.254 398.466 68.5876C399.486 67.6715 399.486 66.4054 398.403 65.8443L388.748 63.0712C380.167 60.9343 375.7 52.5905 375.7 44.8944C375.7 32.7018 385.905 25.0075 396.654 25.0074ZM396.654 37.2684C391.922 37.2684 387.955 40.1679 387.955 44.7456C387.955 47.7195 389.708 50.773 392.761 51.5377L402.304 54.0549C408.103 55.8127 411.614 61.6118 411.614 67.3365C411.614 75.9607 403.674 81.7598 394.668 81.7598C388.566 81.7598 383.144 79.009 379.634 75.4987H379.628L377.796 77.0281C381.307 81.1491 387.716 84.0486 394.891 84.0486C404.965 84.0486 413.897 77.4105 413.897 67.4108C413.897 60.6983 410.005 53.8266 403.138 52.1484L393.521 49.4029C391.535 49.0206 390.239 47.0344 390.239 44.974C390.239 41.7717 392.836 39.5572 396.574 39.5572C399.097 39.5573 401.612 40.5737 402.605 41.7207L404.307 40.328C402.629 38.4958 399.707 37.2684 396.654 37.2684ZM396.574 32.6801C389.554 32.6801 383.372 37.4861 383.372 44.6606C383.372 49.6206 386.198 54.6603 391.158 55.9561L400.695 58.4732C404.588 59.546 406.956 63.7413 406.956 67.6339C406.956 73.4382 401.232 77.1768 394.593 77.1768V77.1715C390.011 77.1715 385.594 75.2704 383.151 72.5992L381.327 74.1577C383.924 76.9033 389.246 79.4604 394.668 79.4604C402.453 79.4604 409.245 74.8827 409.245 67.7082C409.245 62.6685 406.574 57.6342 401.534 56.2588L391.997 53.7416C388.024 52.6742 385.736 48.4789 385.736 44.6606C385.736 38.7872 390.924 34.969 396.803 34.969C400.621 34.969 403.977 36.6471 405.963 38.7076L407.641 37.2578C405.353 34.7406 401.232 32.6801 396.574 32.6801ZM396.654 28.1025C387.265 28.1025 378.795 34.7406 378.795 44.8943C378.795 51.6121 382.687 58.4042 389.554 60.0823L399.097 62.8279C401.083 63.2846 402.379 65.2707 402.379 67.3312C402.379 70.5387 399.097 72.5992 394.593 72.5992C391.386 72.5992 387.945 70.8936 386.495 69.5978L384.808 71.2785C386.869 73.2593 390.77 74.9623 394.817 74.9624C400.233 74.9624 404.662 72.0628 404.662 67.5595C404.662 64.5856 402.984 61.5321 399.931 60.693L390.313 58.1759C384.514 56.4977 381.078 50.773 381.078 44.974C381.078 36.2754 388.407 30.3966 396.649 30.3966C402.071 30.3966 406.42 32.5314 409.548 35.8133L411.306 34.2839C408.103 30.6993 402.761 28.1025 396.654 28.1025Z" fill="#DD04D2"/>
<path d="M374.693 44.8945C374.693 32.0337 385.468 24.0003 396.654 24.0002L397.33 24.0091C404.288 24.1931 410.481 27.2041 414.365 31.5512L417.154 34.6731L402.25 46.8883L401.605 46.2096C400.852 45.4175 400.294 44.9298 399.31 44.3614L399.291 44.3506L399.274 44.3398C399.135 44.2514 398.921 44.1396 398.634 44.0309C398.05 43.8095 397.32 43.6592 396.575 43.6591C395.5 43.6591 394.916 43.9731 394.669 44.1834C394.473 44.3514 394.341 44.563 394.341 44.9742C394.341 45.1694 394.41 45.3438 394.475 45.4345C394.631 45.6544 395.061 45.9611 395.885 46.2833C396.666 46.5886 397.641 46.849 398.684 47.0791C399.724 47.3083 400.792 47.4993 401.761 47.6761C402.69 47.8456 403.566 48.0085 404.179 48.1797C413.358 50.4615 418 59.4224 418 67.4107C418 80.3522 406.489 88.1506 394.891 88.1506C386.722 88.1505 379.089 84.871 374.674 79.6878L371.975 76.5207L386.837 64.5416L389.203 66.5167L389.216 66.5275L389.228 66.5393C389.515 66.7959 390.301 67.3243 391.434 67.7865C392.544 68.2392 393.67 68.4966 394.594 68.4966L394.593 69.504L394.177 69.49C393.33 69.4352 392.406 69.2202 391.503 68.892L391.054 68.7187C389.845 68.2255 388.952 67.6426 388.557 67.29L386.826 65.8443L373.413 76.6556L375.44 79.0352C379.633 83.9573 386.966 87.1437 394.891 87.1437C405.945 87.1437 416.652 79.8582 416.984 67.9802L416.992 67.4109C416.992 59.7363 412.537 51.2956 403.936 49.1576C401.777 48.544 395.423 47.9543 393.797 46.1938L393.654 46.02C393.489 45.7878 393.367 45.4674 393.34 45.1227L393.334 44.9739C393.334 44.3582 393.532 43.9052 393.865 43.5598L394.015 43.4179C394.474 43.0258 395.304 42.6523 396.574 42.6523L396.9 42.6598C397.656 42.6966 398.383 42.8588 398.991 43.0887C399.334 43.2188 399.61 43.36 399.813 43.4889C400.766 44.0392 401.369 44.5339 402.041 45.2132L402.335 45.516L415.703 34.5604L413.614 32.2219C409.922 28.0894 403.994 25.1932 397.303 25.0163L396.654 25.0074C385.905 25.0075 375.7 32.7018 375.7 44.8944L375.713 45.6175C375.983 53.1058 380.435 61.001 388.748 63.0712L398.403 65.8443C399.486 66.4054 399.486 67.6715 398.466 68.5876C397.587 69.254 396.418 69.504 394.593 69.504L394.594 68.4966C396.324 68.4966 397.213 68.2548 397.823 67.8081C398.143 67.5077 398.218 67.2388 398.216 67.0989C398.215 67.0064 398.184 66.8907 398.009 66.7793L388.505 64.0489L388.079 63.9367C379.206 61.4921 374.693 52.7853 374.693 44.8945ZM397.225 37.2826C398.949 37.3684 400.608 37.839 401.998 38.5789C400.592 37.848 398.922 37.372 397.226 37.2836L396.654 37.2684L397.225 37.2826Z" fill="#DD04D2"/>
<g filter="url(#filter0_d_110_158)">
<path d="M312.169 56.2612C312.169 58.5034 310.351 60.3211 308.109 60.3211C305.867 60.3211 304.049 58.5034 304.049 56.2612C304.049 54.019 305.867 52.2014 308.109 52.2014C310.351 52.2014 312.169 54.019 312.169 56.2612Z" fill="white"/>
<path d="M312.169 56.2612C312.169 54.0891 310.463 52.315 308.318 52.2063L308.109 52.2014C305.867 52.2014 304.049 54.019 304.049 56.2612L304.054 56.4701C304.159 58.546 305.824 60.2106 307.9 60.3159L308.109 60.3211C310.281 60.3209 312.055 58.6151 312.164 56.4701L312.169 56.2612ZM316.198 56.2616C316.197 60.7285 312.576 64.3494 308.11 64.3496C303.642 64.3496 300.021 60.7287 300.021 56.2616C300.021 51.7944 303.642 48.1726 308.11 48.1726C312.577 48.1728 316.198 51.7945 316.198 56.2616Z" fill="#DD04D2"/>
</g>
<defs>
<filter id="filter0_d_110_158" x="300.021" y="48.1726" width="16.177" height="16.177" filterUnits="userSpaceOnUse" color-interpolation-filters="sRGB">
<feFlood flood-opacity="0" result="BackgroundImageFix"/>
<feColorMatrix in="SourceAlpha" type="matrix" values="0 0 0 0 0 0 0 0 0 0 0 0 0 0 0 0 0 0 127 0" result="hardAlpha"/>
<feOffset/>
<feComposite in2="hardAlpha" operator="out"/>
<feColorMatrix type="matrix" values="0 0 0 0 0 0 0 0 0 0 0 0 0 0 0 0 0 0 0.25 0"/>
<feBlend mode="normal" in2="BackgroundImageFix" result="effect1_dropShadow_110_158"/>
<feBlend mode="normal" in="SourceGraphic" in2="effect1_dropShadow_110_158" result="shape"/>
</filter>
</defs>
</svg>
